<?xml version="1.0" standalone="no"?>
<!DOCTYPE svg PUBLIC "-//W3C//DTD SVG 20010904//EN"
 "http://www.w3.org/TR/2001/REC-SVG-20010904/DTD/svg10.dtd">
<svg version="1.0" xmlns="http://www.w3.org/2000/svg"
 width="1897.000000pt" height="812.000000pt" viewBox="0 0 1897.000000 812.000000"
 preserveAspectRatio="xMidYMid meet">

<g transform="translate(0.000000,812.000000) scale(0.100000,-0.100000)"
fill="#000000" stroke="none">
<path d="M16407 8113 c-2 -4 -37 -111 -77 -238 -39 -126 -101 -322 -137 -435
-35 -113 -83 -263 -105 -335 -21 -71 -69 -222 -104 -335 -36 -113 -87 -277
-115 -365 -27 -88 -54 -170 -59 -182 l-10 -23 -459 0 c-429 0 -460 -1 -465
-17 -5 -18 -44 -234 -131 -728 -25 -143 -51 -289 -58 -324 l-12 -64 -170 -39
c-93 -20 -177 -37 -186 -35 -17 2 -18 1 86 547 28 151 50 277 49 279 -4 4 -34
-3 -469 -113 -181 -46 -383 -97 -449 -112 -95 -23 -120 -33 -126 -49 -4 -11
-29 -155 -55 -320 -57 -358 -190 -1182 -206 -1277 -7 -38 -18 -69 -26 -72 -8
-3 -13 1 -13 12 0 24 67 729 132 1395 11 119 19 219 16 222 -4 5 -70 -8 -638
-118 l-315 -62 -8 -100 c-8 -108 -18 -176 -22 -160 -2 6 -11 57 -21 114 -11
62 -23 105 -31 108 -7 3 -66 0 -131 -6 -205 -21 -847 -92 -850 -95 -1 -2 -9
-45 -17 -97 -9 -52 -17 -100 -20 -107 -3 -10 -22 -3 -69 23 -89 50 -201 88
-336 116 -103 21 -140 24 -355 24 -218 -1 -254 -3 -394 -29 -85 -15 -182 -36
-215 -46 -33 -11 -63 -15 -66 -11 -3 5 -153 14 -335 20 -181 6 -380 14 -442
17 l-112 7 -5 -34 c-3 -19 -9 -104 -13 -189 l-8 -155 -91 186 -91 186 -94 7
c-52 4 -128 9 -169 12 -41 3 -156 11 -255 19 -99 7 -183 10 -186 7 -4 -4 -14
-86 -23 -182 -21 -211 -33 -311 -39 -316 -2 -2 -38 11 -80 31 -291 132 -653
138 -957 15 l-55 -22 -58 62 c-221 234 -454 366 -747 421 -88 17 -328 17 -420
0 -300 -54 -538 -203 -731 -456 -25 -33 -49 -69 -53 -80 -6 -17 -9 -18 -16 -5
-6 12 -100 367 -177 670 -9 36 -17 66 -17 67 -1 1 -123 24 -271 52 -149 28
-377 72 -508 97 -130 24 -243 43 -250 42 -7 -2 -50 29 -97 68 -345 287 -723
414 -1231 414 l-149 0 0 -57 c0 -32 -3 -95 -7 -140 l-6 -82 -71 62 c-111 98
-163 138 -276 214 -347 234 -761 394 -1120 433 -87 10 -130 9 -249 -4 -80 -9
-147 -18 -149 -21 -3 -2 14 -125 37 -272 81 -517 219 -1410 246 -1585 l27
-178 99 0 c94 0 99 -1 104 -22 2 -13 22 -131 44 -263 285 -1725 347 -2094 353
-2100 6 -6 278 68 348 95 100 39 294 138 370 189 41 28 79 51 84 51 5 0 7 -59
4 -135 l-5 -135 31 -4 c17 -3 245 -17 506 -31 261 -14 488 -27 505 -28 27 -2
30 1 36 43 4 25 11 77 15 115 l7 70 19 -45 c83 -189 113 -253 122 -256 10 -4
627 194 981 314 130 44 134 44 135 -18 1 -19 7 -66 14 -105 12 -69 12 -70 41
-67 17 2 149 23 295 47 146 23 344 55 441 71 l175 28 90 -37 c183 -74 346
-104 513 -93 302 18 565 136 813 365 36 33 71 61 77 61 7 0 38 -14 71 -30 81
-41 148 -65 255 -92 122 -30 389 -33 508 -5 43 10 80 17 82 15 2 -1 -5 -67
-14 -145 l-17 -143 578 0 578 0 4 23 c3 12 9 51 13 87 l9 65 44 -88 44 -87
428 0 428 0 0 83 c0 363 13 1575 16 1586 2 8 6 12 9 10 4 -4 37 -354 85 -899
16 -186 67 -735 70 -748 0 -1 98 -2 218 -2 260 2 466 14 620 37 125 18 138 17
697 -42 121 -13 220 -23 221 -22 1 1 15 100 30 219 16 119 30 215 32 213 3 -2
15 -88 27 -190 13 -102 25 -188 27 -190 4 -4 1000 115 1006 120 2 2 -4 49 -13
105 -10 57 -14 105 -9 110 5 4 38 11 72 14 l64 7 -6 -28 c-10 -47 -46 -282
-46 -298 0 -13 81 -15 695 -15 382 0 695 -2 695 -5 0 -3 -7 -46 -16 -96 -26
-155 9 -276 104 -360 74 -64 136 -83 282 -82 136 0 205 17 283 69 l39 25 36
-25 c21 -14 58 -34 84 -45 45 -19 46 -21 42 -58 -2 -21 -13 -141 -24 -268 -20
-236 -25 -288 -60 -720 -12 -137 -28 -319 -36 -404 -20 -215 -17 -224 22 -76
69 258 207 777 294 1100 49 182 92 347 95 368 l7 37 1154 0 c635 0 1154 2
1154 5 0 5 -141 235 -198 324 -23 35 -42 68 -42 73 0 4 18 34 39 66 59 85 82
154 88 254 5 77 -2 138 -23 192 -5 14 9 16 134 16 l140 0 6 27 c13 65 277
1562 343 1948 20 116 39 213 43 217 3 4 155 30 338 56 183 27 334 51 337 54 4
4 -99 20 -510 79 -116 17 -125 19 -125 37 0 20 30 195 146 842 45 256 86 492
89 525 l7 60 -958 -5 -958 -5 -15 -95 -16 -95 -122 -3 -122 -3 5 138 c3 76 21
507 39 958 18 451 31 821 30 823 -2 2 -5 0 -8 -5z m-146 -1237 c-6 -231 -16
-522 -22 -645 -5 -123 -6 -228 -2 -232 5 -5 87 -10 184 -11 l175 -3 -37 -205
c-20 -113 -44 -249 -54 -302 l-17 -98 -138 0 -138 0 -7 -62 c-4 -35 -5 -83 -3
-107 l3 -45 225 -33 c256 -38 708 -106 1075 -163 138 -21 350 -53 472 -71 122
-18 220 -35 218 -38 -5 -4 -270 -45 -565 -86 -102 -15 -450 -64 -775 -111
-324 -47 -628 -90 -674 -97 l-85 -12 -41 -150 c-24 -82 -40 -153 -38 -157 2
-5 65 -8 139 -8 124 0 135 -1 130 -17 -2 -10 -12 -64 -20 -119 -9 -56 -32
-186 -51 -290 -19 -103 -35 -189 -35 -191 0 -2 -76 -3 -168 -3 l-169 0 -27
-102 c-15 -57 -29 -111 -32 -120 -5 -17 47 -18 1000 -18 951 0 1006 -1 1006
-17 1 -47 -94 -542 -102 -531 -6 10 -17 2 -42 -27 l-34 -40 -999 -3 -1000 -2
-11 -39 c-24 -78 -109 -71 818 -71 559 0 846 -4 880 -11 229 -49 280 -354 92
-549 l-50 -52 90 -144 c50 -80 89 -147 86 -149 -3 -3 -306 -4 -674 -3 l-670 3
27 145 c14 80 25 146 24 148 -2 2 -27 -10 -56 -27 -35 -19 -83 -35 -134 -43
l-80 -14 -19 -107 -20 -107 -188 0 -188 0 6 42 c8 45 8 45 -49 5 -42 -29 -163
-67 -212 -67 -63 0 -143 19 -197 46 -38 19 -68 48 -105 103 -1 2 -23 -15 -49
-38 -111 -103 -305 -137 -446 -78 -45 19 -105 72 -126 111 -18 35 -23 176 -9
259 8 46 9 47 44 47 32 0 35 2 28 23 -36 114 -27 192 35 284 77 116 206 183
349 183 88 0 127 -11 188 -51 44 -29 53 -25 53 22 0 18 8 19 129 19 l128 0 7
38 c16 99 14 103 -84 181 -49 39 -94 71 -98 71 -4 0 -14 -34 -21 -77 -7 -42
-15 -82 -18 -90 -4 -10 -64 -13 -309 -13 -167 0 -304 3 -304 8 0 11 44 273
121 707 38 215 87 498 109 630 22 132 43 248 46 258 5 16 29 17 315 17 170 0
309 -3 309 -7 0 -10 -108 -610 -115 -640 -4 -18 7 -32 57 -72 70 -57 78 -55
78 26 0 28 16 233 35 454 20 222 33 409 31 415 -2 6 -22 14 -43 18 -33 6 -243
55 -950 223 -161 38 -193 49 -193 64 0 18 43 31 215 64 39 8 214 46 390 85
176 39 393 87 482 105 90 19 174 37 187 41 21 5 30 21 55 97 17 51 31 100 31
110 0 16 -24 17 -350 17 -192 0 -350 3 -350 8 0 4 23 141 52 304 l53 298 400
2 399 3 38 120 c54 173 225 712 310 978 40 126 74 223 76 217 3 -7 -1 -202 -7
-434z m-15481 -660 c212 -49 346 -98 561 -206 649 -325 1082 -877 1194 -1519
36 -208 38 -593 4 -796 -28 -169 -97 -380 -176 -540 -135 -272 -413 -565 -684
-720 -42 -24 -50 -25 -226 -25 -115 0 -183 -4 -185 -10 -2 -6 -34 171 -71 392
-37 222 -98 585 -136 808 -38 223 -91 537 -117 697 l-49 293 -97 0 c-83 0 -97
2 -102 18 -2 9 -16 94 -30 187 -15 94 -64 415 -111 715 -46 300 -89 581 -95
625 -6 44 -14 89 -17 99 -5 18 0 19 113 13 70 -4 162 -16 224 -31z m17515 -28
c-4 -14 -105 -577 -158 -888 l-34 -195 -311 -3 -312 -2 5 22 c2 13 20 113 40
223 19 110 37 208 39 218 3 14 -3 17 -40 17 -24 0 -44 -4 -44 -9 0 -5 -37 -91
-82 -190 l-82 -181 -313 0 -313 0 9 23 c5 12 41 94 80 182 39 87 71 163 71
167 0 4 -38 8 -85 8 -47 0 -85 3 -85 8 0 4 23 133 50 286 28 154 50 290 50
303 l0 23 760 0 c603 0 759 -3 755 -12z m-15663 -402 c212 -38 456 -145 629
-276 227 -170 430 -437 508 -667 49 -144 55 -183 55 -343 -1 -139 -3 -164 -28
-245 -36 -120 -83 -217 -157 -325 -73 -107 -220 -250 -331 -322 -45 -30 -75
-55 -71 -62 4 -6 34 -54 68 -106 71 -109 292 -453 414 -645 45 -71 118 -186
162 -254 43 -69 77 -126 75 -129 -6 -5 -329 -112 -336 -111 -3 0 9 7 25 14 27
13 4 14 -197 15 -212 0 -227 -1 -221 -17 3 -10 3 -15 0 -12 -7 6 -236 501
-300 647 -17 39 -34 72 -37 72 -3 0 -20 -152 -38 -337 -19 -186 -36 -341 -38
-345 -3 -5 -153 -8 -335 -8 l-329 0 0 -27 c0 -14 -2 -24 -5 -21 -3 3 -1 91 4
196 l10 191 77 97 c216 271 341 554 405 919 20 112 23 165 24 385 0 272 -8
361 -51 540 -64 269 -163 498 -301 699 l-45 65 6 145 c4 80 9 179 12 220 l6
74 126 -6 c70 -3 166 -13 214 -21z m1468 -552 c162 -30 303 -58 314 -62 15 -6
32 -59 81 -252 34 -135 100 -389 145 -565 292 -1130 490 -1915 490 -1944 0 -4
-146 -5 -324 -3 l-325 3 -3 -28 c-3 -30 -9 2 -87 467 -29 168 -54 315 -56 328
-5 22 -8 22 -165 22 l-159 0 -5 -32 c-3 -18 -13 -107 -21 -198 -24 -255 -20
-242 -63 -238 -34 3 -40 9 -126 144 -50 77 -143 221 -207 320 l-117 179 18
125 17 125 72 72 c146 150 260 338 318 528 25 84 27 103 27 275 1 163 -2 195
-22 268 -28 101 -83 233 -141 332 -41 72 -42 75 -35 138 l7 64 36 -7 c20 -3
169 -30 331 -61z m1950 -299 c209 -50 416 -179 576 -360 32 -36 62 -72 66 -79
4 -7 -18 -32 -60 -65 -68 -53 -172 -164 -222 -236 -15 -22 -44 -72 -64 -112
l-37 -72 -52 42 c-233 190 -523 188 -746 -4 -51 -45 -115 -123 -147 -182 -87
-160 -85 -466 3 -630 38 -69 121 -150 189 -183 79 -39 218 -47 286 -16 82 36
146 110 173 200 l6 22 -190 0 -191 0 0 250 0 250 296 0 295 0 -8 -47 c-12 -76
-6 -281 11 -360 51 -235 172 -454 336 -607 l52 -49 -64 -64 c-89 -91 -186
-167 -272 -214 l-74 -40 -416 0 -417 0 -68 36 -67 36 -46 172 c-242 910 -391
1490 -390 1517 1 51 95 252 178 382 55 86 196 230 282 287 110 74 236 122 377
144 69 11 331 -1 405 -18z m2340 -18 l145 -12 242 -485 c147 -295 242 -475
242 -460 1 14 12 223 26 465 14 242 25 446 25 453 0 10 25 12 113 8 61 -3 174
-8 250 -12 l138 -6 -5 -102 c-3 -55 -8 -571 -11 -1146 -5 -952 -11 -1258 -23
-1222 -3 10 -64 12 -280 12 l-276 -1 -143 285 c-78 156 -146 287 -151 290 -5
3 -14 -34 -20 -82 -6 -48 -24 -190 -39 -317 -15 -126 -29 -218 -31 -202 l-3
27 -354 0 c-273 0 -355 -3 -359 -12 -6 -13 -3 38 9 143 7 55 8 57 68 97 237
158 412 421 472 712 12 58 18 127 17 215 -1 192 -34 333 -119 500 -57 113 -86
155 -169 245 l-66 72 6 67 c10 103 46 412 52 449 5 31 6 32 52 31 26 0 112 -6
192 -12z m6053 -222 c88 -21 157 -42 157 -49 0 -6 -16 -99 -35 -206 -19 -107
-57 -325 -85 -485 -28 -159 -54 -293 -58 -296 -7 -6 -374 -70 -378 -66 -1 1
28 164 65 362 37 198 85 456 106 573 32 175 42 211 55 208 8 -3 86 -21 173
-41z m-6948 -175 c309 -44 605 -280 731 -582 81 -194 96 -440 39 -633 -35
-119 -92 -236 -158 -324 -60 -78 -202 -210 -257 -238 -19 -10 -55 -30 -80 -44
-97 -57 -302 -108 -435 -109 -156 0 -357 56 -496 138 -76 44 -220 164 -249
208 -8 12 -35 47 -58 79 -56 72 -107 184 -140 305 -22 82 -26 115 -26 240 0
161 17 253 72 387 118 283 427 529 718 572 83 12 256 12 339 1z m10277 -17
l225 -6 -22 -121 c-12 -67 -50 -281 -86 -477 l-64 -356 -419 -6 c-689 -11
-1086 -9 -1086 6 0 6 16 99 35 206 19 107 55 314 80 460 25 146 48 274 51 284
5 16 39 17 533 17 290 0 629 -3 753 -7z m-85 -1735 c-3 -8 -6 -5 -6 6 -1 11 2
17 5 13 3 -3 4 -12 1 -19z m-12620 -374 c-3 -3 -12 -4 -19 -1 -8 3 -5 6 6 6
11 1 17 -2 13 -5z"/>
<path d="M16903 3267 c-24 -14 -240 -148 -293 -183 -19 -12 -57 -32 -85 -45
-27 -12 -72 -32 -100 -44 -151 -69 -264 -109 -325 -114 -90 -9 520 -21 1060
-22 355 0 446 3 452 13 7 12 68 370 68 397 0 17 -747 15 -777 -2z"/>
<path d="M14617 2963 c-3 -5 -8 -27 -12 -50 l-7 -43 164 2 c114 1 145 3 103 8
-62 6 -120 27 -190 67 -43 25 -52 27 -58 16z"/>
<path d="M14698 2546 c-126 -45 -188 -121 -188 -231 0 -79 26 -110 140 -167
103 -52 124 -71 114 -102 -26 -87 -134 -85 -134 2 l0 32 -89 0 c-100 0 -101
-1 -101 -74 0 -66 36 -125 95 -156 68 -34 185 -35 263 -1 146 65 202 256 100
347 -12 11 -62 42 -110 68 -94 50 -110 71 -84 111 31 48 106 40 106 -10 0 -25
1 -25 95 -25 l95 0 0 39 c0 76 -35 130 -105 162 -47 22 -143 24 -197 5z"/>
<path d="M15135 2538 c-18 -54 -86 -492 -83 -533 6 -66 40 -117 103 -152 67
-37 183 -39 260 -5 72 33 139 103 164 171 18 47 101 475 101 517 0 11 -20 14
-89 14 -84 0 -89 -1 -94 -22 -3 -13 -22 -115 -42 -228 -20 -113 -42 -223 -51
-246 -35 -97 -164 -88 -164 11 0 17 18 131 40 253 22 121 40 223 40 226 0 3
-41 6 -90 6 -64 0 -92 -4 -95 -12z"/>
<path d="M15762 2433 c-12 -65 -39 -220 -62 -345 -22 -124 -40 -231 -40 -237
0 -7 31 -11 88 -11 l88 0 19 110 18 110 81 0 c173 1 283 82 316 231 25 111 -8
195 -88 232 -41 19 -69 22 -223 25 l-177 4 -20 -119z m319 -69 c38 -34 18
-107 -36 -129 -19 -8 -60 -15 -91 -15 -46 0 -55 3 -50 15 3 8 8 38 12 67 11
86 16 91 86 85 36 -3 67 -12 79 -23z"/>
<path d="M16416 2528 c-10 -44 -36 -186 -76 -413 -22 -126 -43 -240 -45 -252
l-5 -23 200 0 c110 0 200 1 200 3 0 9 22 124 26 140 5 15 -5 17 -106 17 l-112
0 7 43 c13 81 5 76 123 79 l106 3 12 65 c7 36 13 71 13 78 1 9 -26 12 -105 12
l-105 0 7 48 c3 26 9 51 11 55 3 4 53 7 111 6 l106 -2 13 64 c20 110 40 99
-182 99 -194 0 -195 0 -199 -22z"/>
<path d="M16910 2542 c0 -4 -27 -159 -60 -345 -33 -185 -60 -341 -60 -347 0
-7 30 -10 87 -8 l87 3 18 100 c10 55 19 103 21 108 1 5 30 -41 62 -102 l60
-111 103 0 c56 0 102 2 102 5 0 3 -31 55 -69 117 l-69 111 57 27 c99 47 154
137 155 250 1 107 -51 170 -154 190 -62 12 -340 14 -340 2z m251 -162 c61 -17
76 -55 49 -119 -17 -42 -53 -62 -121 -68 -69 -7 -66 -14 -43 110 l16 87 32 0
c17 0 47 -5 67 -10z"/>
<path d="M1390 4530 c0 -6 26 -172 59 -368 32 -196 67 -410 77 -474 21 -138
14 -133 140 -90 175 61 281 170 313 320 15 70 14 113 -4 195 -36 169 -128 283
-290 357 -95 44 -295 84 -295 60z"/>
<path d="M17790 6090 c-36 -4 -59 -7 -52 -8 33 -5 143 -303 182 -493 27 -131
44 -370 27 -381 -7 -5 4 -7 28 -6 l39 3 78 415 c43 228 78 430 78 448 l0 32
-157 -2 c-87 -1 -187 -4 -223 -8z"/>
<path d="M3011 4388 c-12 -134 -25 -267 -28 -295 -6 -51 -5 -53 19 -53 48 0
121 33 159 72 60 62 83 133 83 260 1 102 0 108 -29 150 -20 29 -48 52 -85 70
-105 51 -93 72 -119 -204z"/>
<path d="M4116 4319 c-4 -58 -15 -189 -26 -290 -10 -101 -16 -187 -13 -191 2
-5 38 -8 79 -8 72 0 74 1 70 23 -3 12 -24 137 -46 277 -23 140 -45 264 -49
275 -5 13 -10 -17 -15 -86z"/>
<path d="M7361 4184 c-7 -16 -40 -96 -72 -179 -33 -82 -67 -167 -76 -187 l-16
-38 -224 0 c-124 0 -223 -3 -221 -8 2 -4 76 -76 165 -161 l162 -153 -24 -66
c-13 -37 -55 -142 -94 -234 -38 -93 -65 -168 -61 -168 5 0 61 41 127 91 65 49
129 97 143 107 14 9 50 35 81 59 30 24 60 43 66 43 6 0 43 -24 82 -52 38 -29
127 -95 196 -147 69 -52 128 -91 131 -89 3 3 -22 100 -56 214 -34 115 -63 216
-66 225 -3 11 46 62 152 160 87 79 164 151 172 159 14 13 -8 16 -198 20 l-214
5 -66 200 c-36 110 -68 206 -71 214 -3 9 -9 3 -18 -15z"/>
<path d="M17763 4393 c9 -2 17 -7 17 -11 0 -8 -152 -315 -160 -322 -5 -5 -114
-165 -135 -199 -24 -38 -105 -139 -141 -176 l-39 -40 140 -8 c77 -4 176 -6
220 -5 l79 3 36 210 c42 241 90 536 90 548 0 4 -28 6 -62 6 -35 -1 -55 -3 -45
-6z"/>
<path d="M17027 4048 c-4 -24 -9 -58 -13 -75 l-6 -33 135 0 136 0 7 38 c3 20
10 54 14 75 l8 37 -138 0 -137 0 -6 -42z"/>
</g>
</svg>
